<svg xmlns="http://www.w3.org/2000/svg" viewBox="-1800 -90 3600 4490" width="3600" height="4490" font-family="IBM Plex Sans, Segoe UI, system-ui, sans-serif"><title>The ideation mindmap</title><defs><marker id="ar" viewBox="0 0 10 10" refX="9" refY="5" markerWidth="7" markerHeight="7" orient="auto-start-reverse"><path d="M0,0 L10,5 L0,10 z" fill="var(--dg-edge)"/></marker></defs><style>svg{--n0-bg:#ffffff;--n0-br:#ccd3cf;--n0-fg:#202725;--n1-bg:#fbe6e4;--n1-br:#b8392c;--n1-fg:#6f1c14;--n2-bg:#fbecdd;--n2-br:#c56c1a;--n2-fg:#7d4310;--n3-bg:#faf3d8;--n3-br:#a38200;--n3-fg:#5f4b00;--n4-bg:#e2f3e7;--n4-br:#2c8a4b;--n4-fg:#19542d;--n5-bg:#dff0f5;--n5-br:#1a7a90;--n5-fg:#0f4a57;--n6-bg:#ece6f4;--n6-br:#6642a1;--n6-fg:#3d2662;--dg-ground:#f3f5f3;--dg-edge:#96a09c;--dg-dim:#7d8783;--dg-chip:#ffffff;--dg-chip-br:#ccd3cf;--dg-chip-fg:#5d6764;}</style><rect x="-1800" y="-90" width="3600" height="4490" fill="var(--dg-ground)"/><path d="M770,694 C1034,694 676,66 940,66" fill="none" stroke="var(--dg-edge)" stroke-width="1.9" marker-end="url(#ar)"/><rect x="814" y="368" width="82" height="23" rx="11.5" fill="var(--dg-chip)" stroke="var(--dg-chip-br)" stroke-width="1.2"/><text x="855" y="384" font-size="11.5" fill="var(--dg-chip-fg)" text-anchor="middle" font-style="italic">started as</text><path d="M770,694 C923,694 787,330 940,330" fill="none" stroke="var(--dg-edge)" stroke-width="1.9" marker-end="url(#ar)"/><rect x="811" y="500" width="89" height="23" rx="11.5" fill="var(--dg-chip)" stroke="var(--dg-chip-br)" stroke-width="1.2"/><text x="855" y="516" font-size="11.5" fill="var(--dg-chip-fg)" text-anchor="middle" font-style="italic">scan cut it</text><path d="M770,694 C841,694 869,631 940,631" fill="none" stroke="var(--dg-edge)" stroke-width="1.9" marker-end="url(#ar)"/><rect x="817" y="650" width="75" height="23" rx="11.5" fill="var(--dg-chip)" stroke="var(--dg-chip-br)" stroke-width="1.2"/><text x="855" y="666" font-size="11.5" fill="var(--dg-chip-fg)" text-anchor="middle" font-style="italic">prior art</text><path d="M1270,952 C1330,952 1350,986 1410,986" fill="none" stroke="var(--dg-edge)" stroke-width="1.9" marker-end="url(#ar)"/><path d="M770,694 C879,694 831,952 940,952" fill="none" stroke="var(--dg-edge)" stroke-width="1.9" marker-end="url(#ar)"/><rect x="804" y="811" width="102" height="23" rx="11.5" fill="var(--dg-chip)" stroke="var(--dg-chip-br)" stroke-width="1.2"/><text x="855" y="827" font-size="11.5" fill="var(--dg-chip-fg)" text-anchor="middle" font-style="italic">what survived</text><path d="M770,694 C1025,694 685,1300 940,1300" fill="none" stroke="var(--dg-edge)" stroke-width="1.9" marker-end="url(#ar)"/><rect x="814" y="985" width="82" height="23" rx="11.5" fill="var(--dg-chip)" stroke="var(--dg-chip-br)" stroke-width="1.2"/><text x="855" y="1001" font-size="11.5" fill="var(--dg-chip-fg)" text-anchor="middle" font-style="italic">demoted to</text><path d="M190,2163 C807,2163 -147,694 470,694" fill="none" stroke="var(--dg-edge)" stroke-width="1.9" marker-end="url(#ar)"/><rect x="292" y="1416" width="75" height="23" rx="11.5" fill="var(--dg-chip)" stroke="var(--dg-chip-br)" stroke-width="1.2"/><text x="330" y="1432" font-size="11.5" fill="var(--dg-chip-fg)" text-anchor="middle" font-style="italic">the pitch</text><path d="M770,2081 C989,2081 721,1559 940,1559" fill="none" stroke="var(--dg-edge)" stroke-width="1.9" marker-end="url(#ar)"/><path d="M770,2081 C889,2081 821,1798 940,1798" fill="none" stroke="var(--dg-edge)" stroke-width="1.9" marker-end="url(#ar)"/><rect x="804" y="1927" width="102" height="23" rx="11.5" fill="var(--dg-chip)" stroke="var(--dg-chip-br)" stroke-width="1.2"/><text x="855" y="1943" font-size="11.5" fill="var(--dg-chip-fg)" text-anchor="middle" font-style="italic">leaves behind</text><path d="M770,2081 C841,2081 869,2041 940,2041" fill="none" stroke="var(--dg-edge)" stroke-width="1.9" marker-end="url(#ar)"/><rect x="830" y="2049" width="49" height="23" rx="11.5" fill="var(--dg-chip)" stroke="var(--dg-chip-br)" stroke-width="1.2"/><text x="855" y="2065" font-size="11.5" fill="var(--dg-chip-fg)" text-anchor="middle" font-style="italic">job 2</text><path d="M770,2081 C853,2081 857,2280 940,2280" fill="none" stroke="var(--dg-edge)" stroke-width="1.9" marker-end="url(#ar)"/><rect x="830" y="2168" width="49" height="23" rx="11.5" fill="var(--dg-chip)" stroke="var(--dg-chip-br)" stroke-width="1.2"/><text x="855" y="2184" font-size="11.5" fill="var(--dg-chip-fg)" text-anchor="middle" font-style="italic">job 3</text><path d="M770,2081 C971,2081 739,2560 940,2560" fill="none" stroke="var(--dg-edge)" stroke-width="1.9" marker-end="url(#ar)"/><rect x="804" y="2308" width="102" height="23" rx="11.5" fill="var(--dg-chip)" stroke="var(--dg-chip-br)" stroke-width="1.2"/><text x="855" y="2324" font-size="11.5" fill="var(--dg-chip-fg)" text-anchor="middle" font-style="italic">what it costs</text><path d="M190,2163 C308,2163 352,2081 470,2081" fill="none" stroke="var(--dg-edge)" stroke-width="1.9" marker-end="url(#ar)"/><rect x="282" y="2110" width="95" height="23" rx="11.5" fill="var(--dg-chip)" stroke="var(--dg-chip-br)" stroke-width="1.2"/><text x="330" y="2126" font-size="11.5" fill="var(--dg-chip-fg)" text-anchor="middle" font-style="italic">how it works</text><path d="M770,3560 C1073,3560 637,2840 940,2840" fill="none" stroke="var(--dg-edge)" stroke-width="1.9" marker-end="url(#ar)"/><path d="M770,3560 C966,3560 744,3094 940,3094" fill="none" stroke="var(--dg-edge)" stroke-width="1.9" marker-end="url(#ar)"/><path d="M770,3560 C848,3560 862,3374 940,3374" fill="none" stroke="var(--dg-edge)" stroke-width="1.9" marker-end="url(#ar)"/><path d="M770,3560 C841,3560 869,3638 940,3638" fill="none" stroke="var(--dg-edge)" stroke-width="1.9" marker-end="url(#ar)"/><rect x="778" y="3587" width="155" height="23" rx="11.5" fill="var(--dg-chip)" stroke="var(--dg-chip-br)" stroke-width="1.2"/><text x="855" y="3603" font-size="11.5" fill="var(--dg-chip-fg)" text-anchor="middle" font-style="italic">Jin Siang pushed back</text><path d="M770,3560 C931,3560 779,3944 940,3944" fill="none" stroke="var(--dg-edge)" stroke-width="1.9" marker-end="url(#ar)"/><rect x="811" y="3740" width="89" height="23" rx="11.5" fill="var(--dg-chip)" stroke="var(--dg-chip-br)" stroke-width="1.2"/><text x="855" y="3756" font-size="11.5" fill="var(--dg-chip-fg)" text-anchor="middle" font-style="italic">which gives</text><path d="M1270,4250 C1330,4250 1350,4255 1410,4255" fill="none" stroke="var(--dg-edge)" stroke-width="1.9" marker-end="url(#ar)"/><path d="M770,3560 C1060,3560 650,4250 940,4250" fill="none" stroke="var(--dg-edge)" stroke-width="1.9" marker-end="url(#ar)"/><rect x="837" y="3893" width="36" height="23" rx="11.5" fill="var(--dg-chip)" stroke="var(--dg-chip-br)" stroke-width="1.2"/><text x="855" y="3909" font-size="11.5" fill="var(--dg-chip-fg)" text-anchor="middle" font-style="italic">but</text><path d="M190,2163 C777,2163 -117,3560 470,3560" fill="none" stroke="var(--dg-edge)" stroke-width="1.9" marker-end="url(#ar)"/><rect x="289" y="2850" width="82" height="23" rx="11.5" fill="var(--dg-chip)" stroke="var(--dg-chip-br)" stroke-width="1.2"/><text x="330" y="2866" font-size="11.5" fill="var(--dg-chip-fg)" text-anchor="middle" font-style="italic">the ground</text><path d="M-1270,50 C-1330,50 -1350,65 -1410,65" fill="none" stroke="var(--dg-edge)" stroke-width="1.9" marker-end="url(#ar)"/><path d="M-770,639 C-1018,639 -692,50 -940,50" fill="none" stroke="var(--dg-edge)" stroke-width="1.9" marker-end="url(#ar)"/><path d="M-770,639 C-896,639 -814,340 -940,340" fill="none" stroke="var(--dg-edge)" stroke-width="1.9" marker-end="url(#ar)"/><rect x="-876" y="478" width="42" height="23" rx="11.5" fill="var(--dg-chip)" stroke="var(--dg-chip-br)" stroke-width="1.2"/><text x="-855" y="494" font-size="11.5" fill="var(--dg-chip-fg)" text-anchor="middle" font-style="italic">then</text><path d="M-770,639 C-841,639 -869,620 -940,620" fill="none" stroke="var(--dg-edge)" stroke-width="1.9" marker-end="url(#ar)"/><rect x="-889" y="618" width="69" height="23" rx="11.5" fill="var(--dg-chip)" stroke="var(--dg-chip-br)" stroke-width="1.2"/><text x="-855" y="634" font-size="11.5" fill="var(--dg-chip-fg)" text-anchor="middle" font-style="italic">and lost</text><path d="M-770,639 C-886,639 -824,916 -940,916" fill="none" stroke="var(--dg-edge)" stroke-width="1.9" marker-end="url(#ar)"/><rect x="-896" y="765" width="82" height="23" rx="11.5" fill="var(--dg-chip)" stroke="var(--dg-chip-br)" stroke-width="1.2"/><text x="-855" y="781" font-size="11.5" fill="var(--dg-chip-fg)" text-anchor="middle" font-style="italic">then fixed</text><path d="M-770,639 C-1008,639 -702,1206 -940,1206" fill="none" stroke="var(--dg-edge)" stroke-width="1.9" marker-end="url(#ar)"/><rect x="-889" y="910" width="69" height="23" rx="11.5" fill="var(--dg-chip)" stroke="var(--dg-chip-br)" stroke-width="1.2"/><text x="-855" y="926" font-size="11.5" fill="var(--dg-chip-fg)" text-anchor="middle" font-style="italic">deployed</text><path d="M-190,2163 C-830,2163 170,639 -470,639" fill="none" stroke="var(--dg-edge)" stroke-width="1.9" marker-end="url(#ar)"/><rect x="-364" y="1389" width="69" height="23" rx="11.5" fill="var(--dg-chip)" stroke="var(--dg-chip-br)" stroke-width="1.2"/><text x="-330" y="1405" font-size="11.5" fill="var(--dg-chip-fg)" text-anchor="middle" font-style="italic">evidence</text><path d="M-770,2169 C-1048,2169 -662,1507 -940,1507" fill="none" stroke="var(--dg-edge)" stroke-width="1.9" marker-end="url(#ar)"/><rect x="-929" y="1826" width="148" height="23" rx="11.5" fill="var(--dg-chip)" stroke="var(--dg-chip-br)" stroke-width="1.2"/><text x="-855" y="1842" font-size="11.5" fill="var(--dg-chip-fg)" text-anchor="middle" font-style="italic">cost a novelty claim</text><path d="M-770,2169 C-913,2169 -797,1828 -940,1828" fill="none" stroke="var(--dg-edge)" stroke-width="1.9" marker-end="url(#ar)"/><path d="M-770,2169 C-841,2169 -869,2186 -940,2186" fill="none" stroke="var(--dg-edge)" stroke-width="1.9" marker-end="url(#ar)"/><path d="M-770,2169 C-917,2169 -793,2518 -940,2518" fill="none" stroke="var(--dg-edge)" stroke-width="1.9" marker-end="url(#ar)"/><path d="M-1270,2840 C-1330,2840 -1350,2845 -1410,2845" fill="none" stroke="var(--dg-edge)" stroke-width="1.9" marker-end="url(#ar)"/><path d="M-770,2169 C-1052,2169 -658,2840 -940,2840" fill="none" stroke="var(--dg-edge)" stroke-width="1.9" marker-end="url(#ar)"/><rect x="-903" y="2492" width="95" height="23" rx="11.5" fill="var(--dg-chip)" stroke="var(--dg-chip-br)" stroke-width="1.2"/><text x="-855" y="2508" font-size="11.5" fill="var(--dg-chip-fg)" text-anchor="middle" font-style="italic">but salvaged</text><path d="M-190,2163 C-308,2163 -352,2169 -470,2169" fill="none" stroke="var(--dg-edge)" stroke-width="1.9" marker-end="url(#ar)"/><rect x="-368" y="2154" width="75" height="23" rx="11.5" fill="var(--dg-chip)" stroke="var(--dg-chip-br)" stroke-width="1.2"/><text x="-330" y="2170" font-size="11.5" fill="var(--dg-chip-fg)" text-anchor="middle" font-style="italic">dead ends</text><path d="M-770,3690 C-1014,3690 -696,3110 -940,3110" fill="none" stroke="var(--dg-edge)" stroke-width="1.9" marker-end="url(#ar)"/><path d="M-770,3690 C-912,3690 -798,3353 -940,3353" fill="none" stroke="var(--dg-edge)" stroke-width="1.9" marker-end="url(#ar)"/><path d="M-770,3690 C-841,3690 -869,3628 -940,3628" fill="none" stroke="var(--dg-edge)" stroke-width="1.9" marker-end="url(#ar)"/><path d="M-770,3690 C-872,3690 -838,3934 -940,3934" fill="none" stroke="var(--dg-edge)" stroke-width="1.9" marker-end="url(#ar)"/><path d="M-770,3690 C-1001,3690 -709,4240 -940,4240" fill="none" stroke="var(--dg-edge)" stroke-width="1.9" marker-end="url(#ar)"/><rect x="-906" y="3953" width="102" height="23" rx="11.5" fill="var(--dg-chip)" stroke="var(--dg-chip-br)" stroke-width="1.2"/><text x="-855" y="3969" font-size="11.5" fill="var(--dg-chip-fg)" text-anchor="middle" font-style="italic">the one check</text><path d="M-190,2163 C-831,2163 171,3690 -470,3690" fill="none" stroke="var(--dg-edge)" stroke-width="1.9" marker-end="url(#ar)"/><rect x="-394" y="2914" width="128" height="23" rx="11.5" fill="var(--dg-chip)" stroke="var(--dg-chip-br)" stroke-width="1.2"/><text x="-330" y="2930" font-size="11.5" fill="var(--dg-chip-fg)" text-anchor="middle" font-style="italic">the honest column</text><rect x="470" y="663" width="300" height="62" rx="10" fill="var(--n4-bg)" stroke="var(--n4-br)" stroke-width="1.8"/><text xml:space="preserve" x="488" y="702" font-size="18.5" fill="var(--n4-fg)" font-weight="700"><tspan >What we say is ours</tspan></text><rect x="940" y="16" width="330" height="99" rx="10" fill="var(--n0-bg)" stroke="var(--n0-br)" stroke-width="1.8"/><text xml:space="preserve" x="958" y="50" font-size="14.5" fill="var(--n0-fg)"><tspan font-weight="700">1 Sept.</tspan><tspan > A map-first trip planner </tspan></text><text xml:space="preserve" x="958" y="71" font-size="14.5" fill="var(--n0-fg)"><tspan >with budgeting, routing and </tspan></text><text xml:space="preserve" x="958" y="92" font-size="14.5" fill="var(--n0-fg)"><tspan >recommended stops</tspan></text><rect x="940" y="270" width="330" height="120" rx="10" fill="var(--n0-bg)" stroke="var(--n0-br)" stroke-width="1.8"/><text xml:space="preserve" x="958" y="304" font-size="14.5" fill="var(--n0-fg)"><tspan font-weight="700">1 Sept.</tspan><tspan > Narrowed: the shape of a </tspan></text><text xml:space="preserve" x="958" y="325" font-size="14.5" fill="var(--n0-fg)"><tspan >same-airport round trip is the </tspan></text><text xml:space="preserve" x="958" y="346" font-size="14.5" fill="var(--n0-fg)"><tspan >traveller's decision, not a routing </tspan></text><text xml:space="preserve" x="958" y="367" font-size="14.5" fill="var(--n0-fg)"><tspan >accident</tspan></text><rect x="940" y="550" width="330" height="162" rx="10" fill="var(--n6-bg)" stroke="var(--n6-br)" stroke-width="1.8"/><text xml:space="preserve" x="958" y="584" font-size="14.5" fill="var(--n6-fg)"><tspan text-decoration="line-through" opacity="0.62">Nobody does the round trip</tspan></text><text xml:space="preserve" x="958" y="626" font-size="14.5" fill="var(--n6-fg)"><tspan font-weight="700">6 Sept.</tspan><tspan > False. Contour ships a loop </tspan></text><text xml:space="preserve" x="958" y="647" font-size="14.5" fill="var(--n6-fg)"><tspan >that goes out one way and comes back </tspan></text><text xml:space="preserve" x="958" y="668" font-size="14.5" fill="var(--n6-fg)"><tspan >another; calimoto exposes it as </tspan></text><text xml:space="preserve" x="958" y="689" font-size="14.5" fill="var(--n6-fg)"><tspan >controls</tspan></text><rect x="940" y="882" width="330" height="141" rx="10" fill="var(--n4-bg)" stroke="var(--n4-br)" stroke-width="1.8"/><text xml:space="preserve" x="958" y="916" font-size="14.5" fill="var(--n4-fg)"><tspan font-weight="700">6 Sept, and this is the claim now</tspan></text><text xml:space="preserve" x="958" y="958" font-size="14.5" fill="var(--n4-fg)"><tspan >The itinerary knows what can break </tspan></text><text xml:space="preserve" x="958" y="979" font-size="14.5" fill="var(--n4-fg)"><tspan >it, and repairs itself from options </tspan></text><text xml:space="preserve" x="958" y="1000" font-size="14.5" fill="var(--n4-fg)"><tspan >the group already approved</tspan></text><rect x="1410" y="931" width="300" height="110" rx="10" fill="var(--n0-bg)" stroke="var(--n0-br)" stroke-width="1.8"/><text x="1428" y="965" font-size="13" fill="var(--n0-br)" font-family="IBM Plex Mono, ui-monospace, Consolas, monospace">&#128196; live note</text><text x="1428" y="993" font-size="14.5" font-weight="600" fill="var(--n0-fg)" font-family="IBM Plex Mono, ui-monospace, Consolas, monospace">build-verdict.md</text><text x="1428" y="1017" font-size="12" fill="var(--dg-dim)" font-family="IBM Plex Mono, ui-monospace, Consolas, monospace">docs/decisions/</text><rect x="940" y="1240" width="330" height="120" rx="10" fill="var(--n3-bg)" stroke="var(--n3-br)" stroke-width="1.8"/><text xml:space="preserve" x="958" y="1274" font-size="14.5" fill="var(--n3-fg)"><tspan >The round trip stays as a </tspan><tspan font-weight="700">secondary</tspan></text><text xml:space="preserve" x="958" y="1295" font-size="14.5" fill="var(--n3-fg)"><tspan >twist, stated narrowly. Worth marks </tspan></text><text xml:space="preserve" x="958" y="1316" font-size="14.5" fill="var(--n3-fg)"><tspan >under Novel Features. No longer the </tspan></text><text xml:space="preserve" x="958" y="1337" font-size="14.5" fill="var(--n3-fg)"><tspan >headline</tspan></text><rect x="470" y="2050" width="300" height="62" rx="10" fill="var(--n5-bg)" stroke="var(--n5-br)" stroke-width="1.8"/><text xml:space="preserve" x="488" y="2089" font-size="18.5" fill="var(--n5-fg)" font-weight="700"><tspan >One mechanism, three jobs</tspan></text><rect x="940" y="1520" width="330" height="78" rx="10" fill="var(--n0-bg)" stroke="var(--n0-br)" stroke-width="1.8"/><text xml:space="preserve" x="958" y="1554" font-size="14.5" fill="var(--n0-fg)"><tspan >The group votes, and the vote </tspan></text><text xml:space="preserve" x="958" y="1575" font-size="14.5" fill="var(--n0-fg)"><tspan >produces the itinerary</tspan></text><rect x="940" y="1748" width="330" height="99" rx="10" fill="var(--n0-bg)" stroke="var(--n0-br)" stroke-width="1.8"/><text xml:space="preserve" x="958" y="1782" font-size="14.5" fill="var(--n0-fg)"><tspan >Everything that lost becomes a </tspan></text><text xml:space="preserve" x="958" y="1803" font-size="14.5" fill="var(--n0-fg)"><tspan font-weight="700">ranked bench</tspan><tspan > - already approved, </tspan></text><text xml:space="preserve" x="958" y="1824" font-size="14.5" fill="var(--n0-fg)"><tspan >still on screen</tspan></text><rect x="940" y="2002" width="330" height="78" rx="10" fill="var(--n0-bg)" stroke="var(--n0-br)" stroke-width="1.8"/><text xml:space="preserve" x="958" y="2036" font-size="14.5" fill="var(--n0-fg)"><tspan >The bench is the </tspan><tspan font-weight="700">cut list</tspan><tspan > when we </tspan></text><text xml:space="preserve" x="958" y="2057" font-size="14.5" fill="var(--n0-fg)"><tspan >are over budget</tspan></text><rect x="940" y="2230" width="330" height="99" rx="10" fill="var(--n4-bg)" stroke="var(--n4-br)" stroke-width="1.8"/><text xml:space="preserve" x="958" y="2264" font-size="14.5" fill="var(--n4-fg)"><tspan >The bench is the </tspan><tspan font-weight="700">replacement pool</tspan></text><text xml:space="preserve" x="958" y="2285" font-size="14.5" fill="var(--n4-fg)"><tspan >when a stop closes. A monsoon </tspan></text><text xml:space="preserve" x="958" y="2306" font-size="14.5" fill="var(--n4-fg)"><tspan >substitution needs no new vote</tspan></text><rect x="940" y="2510" width="330" height="99" rx="10" fill="var(--n3-bg)" stroke="var(--n3-br)" stroke-width="1.8"/><text xml:space="preserve" x="958" y="2544" font-size="14.5" fill="var(--n3-fg)"><tspan font-weight="700">The cost, recorded.</tspan><tspan > Three behaviours </tspan></text><text xml:space="preserve" x="958" y="2565" font-size="14.5" fill="var(--n3-fg)"><tspan >are now coupled. Changing voting </tspan></text><text xml:space="preserve" x="958" y="2586" font-size="14.5" fill="var(--n3-fg)"><tspan >changes how disruption recovers</tspan></text><rect x="470" y="3516" width="300" height="88" rx="10" fill="var(--n5-bg)" stroke="var(--n5-br)" stroke-width="1.8"/><text xml:space="preserve" x="488" y="3555" font-size="18.5" fill="var(--n5-fg)" font-weight="700"><tspan >Who we are actually </tspan></text><text xml:space="preserve" x="488" y="3581" font-size="18.5" fill="var(--n5-fg)" font-weight="700"><tspan >against</tspan></text><rect x="940" y="2790" width="330" height="99" rx="10" fill="var(--n0-bg)" stroke="var(--n0-br)" stroke-width="1.8"/><text xml:space="preserve" x="958" y="2824" font-size="14.5" fill="var(--n0-fg)"><tspan font-weight="700">Scan 1, 1 Sept.</tspan><tspan > Wanderlog, </tspan></text><text xml:space="preserve" x="958" y="2845" font-size="14.5" fill="var(--n0-fg)"><tspan >Roadtrippers, Furkot. Killed "a </tspan></text><text xml:space="preserve" x="958" y="2866" font-size="14.5" fill="var(--n0-fg)"><tspan >travel planner" as a claim</tspan></text><rect x="940" y="3044" width="330" height="99" rx="10" fill="var(--n0-bg)" stroke="var(--n0-br)" stroke-width="1.8"/><text xml:space="preserve" x="958" y="3078" font-size="14.5" fill="var(--n0-fg)"><tspan font-weight="700">Scan 2, 6 Sept.</tspan><tspan > Contour, calimoto, </tspan></text><text xml:space="preserve" x="958" y="3099" font-size="14.5" fill="var(--n0-fg)"><tspan >Locationscout, Sitata. Killed the </tspan></text><text xml:space="preserve" x="958" y="3120" font-size="14.5" fill="var(--n0-fg)"><tspan >round trip and the photo page</tspan></text><rect x="940" y="3324" width="330" height="99" rx="10" fill="var(--n0-bg)" stroke="var(--n0-br)" stroke-width="1.8"/><text xml:space="preserve" x="958" y="3358" font-size="14.5" fill="var(--n0-fg)"><tspan font-weight="700">Scan 3, 6 Sept.</tspan><tspan > Tripeza, </tspan></text><text xml:space="preserve" x="958" y="3379" font-size="14.5" fill="var(--n0-fg)"><tspan >SwipeSights, Plan Harmony. Killed </tspan></text><text xml:space="preserve" x="958" y="3400" font-size="14.5" fill="var(--n0-fg)"><tspan >voting as a claim</tspan></text><rect x="940" y="3578" width="330" height="120" rx="10" fill="var(--n3-bg)" stroke="var(--n3-br)" stroke-width="1.8"/><text xml:space="preserve" x="958" y="3612" font-size="14.5" fill="var(--n3-fg)"><tspan font-weight="700">The correction that mattered.</tspan></text><text xml:space="preserve" x="958" y="3633" font-size="14.5" fill="var(--n3-fg)"><tspan >Searching by product shape only </tspan></text><text xml:space="preserve" x="958" y="3654" font-size="14.5" fill="var(--n3-fg)"><tspan >surfaces long-tail apps. Search by </tspan></text><text xml:space="preserve" x="958" y="3675" font-size="14.5" fill="var(--n3-fg)"><tspan >what a group actually does</tspan></text><rect x="940" y="3884" width="330" height="120" rx="10" fill="var(--n1-bg)" stroke="var(--n1-br)" stroke-width="1.8"/><text xml:space="preserve" x="958" y="3918" font-size="14.5" fill="var(--n1-fg)"><tspan font-weight="700">The real enemy is a five-app stack</tspan><tspan > - </tspan></text><text xml:space="preserve" x="958" y="3939" font-size="14.5" fill="var(--n1-fg)"><tspan >ChatGPT, Google Maps lists, </tspan></text><text xml:space="preserve" x="958" y="3960" font-size="14.5" fill="var(--n1-fg)"><tspan >Xiaohongshu, WhatsApp polls, </tspan></text><text xml:space="preserve" x="958" y="3981" font-size="14.5" fill="var(--n1-fg)"><tspan >Trip.com. All free, all huge</tspan></text><rect x="940" y="4190" width="330" height="120" rx="10" fill="var(--n4-bg)" stroke="var(--n4-br)" stroke-width="1.8"/><text xml:space="preserve" x="958" y="4224" font-size="14.5" fill="var(--n4-fg)"><tspan font-weight="700">And every one stops at the same </tspan></text><text xml:space="preserve" x="958" y="4245" font-size="14.5" fill="var(--n4-fg)"><tspan font-weight="700">place.</tspan><tspan > None of them holds a </tspan></text><text xml:space="preserve" x="958" y="4266" font-size="14.5" fill="var(--n4-fg)"><tspan >committed group plan and repairs it </tspan></text><text xml:space="preserve" x="958" y="4287" font-size="14.5" fill="var(--n4-fg)"><tspan >when the world changes</tspan></text><rect x="1410" y="4200" width="300" height="110" rx="10" fill="var(--n0-bg)" stroke="var(--n0-br)" stroke-width="1.8"/><text x="1428" y="4234" font-size="13" fill="var(--n0-br)" font-family="IBM Plex Mono, ui-monospace, Consolas, monospace">&#128196; live note</text><text x="1428" y="4262" font-size="14.5" font-weight="600" fill="var(--n0-fg)" font-family="IBM Plex Mono, ui-monospace, Consolas, monospace">competitors.md</text><text x="1428" y="4286" font-size="12" fill="var(--dg-dim)" font-family="IBM Plex Mono, ui-monospace, Consolas, monospace">docs/market/</text><rect x="-770" y="608" width="300" height="62" rx="10" fill="var(--n5-bg)" stroke="var(--n5-br)" stroke-width="1.8"/><text xml:space="preserve" x="-752" y="647" font-size="18.5" fill="var(--n5-fg)" font-weight="700"><tspan >What got built</tspan></text><rect x="-1270" y="0" width="330" height="99" rx="10" fill="var(--n0-bg)" stroke="var(--n0-br)" stroke-width="1.8"/><text xml:space="preserve" x="-1252" y="34" font-size="14.5" fill="var(--n0-fg)"><tspan font-weight="700">Mockup 1.</tspan><tspan > Map-first: custom map, </tspan></text><text xml:space="preserve" x="-1252" y="55" font-size="14.5" fill="var(--n0-fg)"><tspan >control panel, round-trip strategy, </tspan></text><text xml:space="preserve" x="-1252" y="76" font-size="14.5" fill="var(--n0-fg)"><tspan >vote, bench, simulated disruption</tspan></text><rect x="-1710" y="10" width="300" height="110" rx="10" fill="var(--n0-bg)" stroke="var(--n0-br)" stroke-width="1.8"/><text x="-1692" y="44" font-size="13" fill="var(--n0-br)" font-family="IBM Plex Mono, ui-monospace, Consolas, monospace">&#128196; live note</text><text x="-1692" y="72" font-size="14.5" font-weight="600" fill="var(--n0-fg)" font-family="IBM Plex Mono, ui-monospace, Consolas, monospace">travel-planner.html</text><text x="-1692" y="96" font-size="12" fill="var(--dg-dim)" font-family="IBM Plex Mono, ui-monospace, Consolas, monospace">docs/prototype/</text><rect x="-1270" y="280" width="330" height="120" rx="10" fill="var(--n0-bg)" stroke="var(--n0-br)" stroke-width="1.8"/><text xml:space="preserve" x="-1252" y="314" font-size="14.5" fill="var(--n0-fg)"><tspan font-weight="700">Mockup 2, 6 Sept.</tspan><tspan > A slide deck. The </tspan></text><text xml:space="preserve" x="-1252" y="335" font-size="14.5" fill="var(--n0-fg)"><tspan >map handed to Google Maps, which </tspan></text><text xml:space="preserve" x="-1252" y="356" font-size="14.5" fill="var(--n0-fg)"><tspan >removed the metered-API feasibility </tspan></text><text xml:space="preserve" x="-1252" y="377" font-size="14.5" fill="var(--n0-fg)"><tspan >risk</tspan></text><rect x="-1270" y="560" width="330" height="120" rx="10" fill="var(--n3-bg)" stroke="var(--n3-br)" stroke-width="1.8"/><text xml:space="preserve" x="-1252" y="594" font-size="14.5" fill="var(--n3-fg)"><tspan font-weight="700">Same day.</tspan><tspan > The deck had quietly </tspan></text><text xml:space="preserve" x="-1252" y="615" font-size="14.5" fill="var(--n3-fg)"><tspan >dropped the vote, the bench and the </tspan></text><text xml:space="preserve" x="-1252" y="636" font-size="14.5" fill="var(--n3-fg)"><tspan >substitution - the entire argument. </tspan></text><text xml:space="preserve" x="-1252" y="657" font-size="14.5" fill="var(--n3-fg)"><tspan >Put back as "what to do today"</tspan></text><rect x="-1270" y="866" width="330" height="99" rx="10" fill="var(--n4-bg)" stroke="var(--n4-br)" stroke-width="1.8"/><text xml:space="preserve" x="-1252" y="900" font-size="14.5" fill="var(--n4-fg)"><tspan font-weight="700">Merged.</tspan><tspan > Pages 2 and 3 became one; </tspan></text><text xml:space="preserve" x="-1252" y="921" font-size="14.5" fill="var(--n4-fg)"><tspan >the hotel became a vote; a read-only </tspan></text><text xml:space="preserve" x="-1252" y="942" font-size="14.5" fill="var(--n4-fg)"><tspan >final plan is derived from the votes</tspan></text><rect x="-1270" y="1146" width="330" height="120" rx="10" fill="var(--n0-bg)" stroke="var(--n0-br)" stroke-width="1.8"/><text xml:space="preserve" x="-1252" y="1180" font-size="14.5" fill="var(--n0-fg)"><tspan >Live at </tspan></text><text xml:space="preserve" x="-1252" y="1201" font-size="14.5" fill="var(--n0-fg)"><tspan >codenection-travel-planner.vercel.app. </tspan></text><text xml:space="preserve" x="-1252" y="1222" font-size="14.5" fill="var(--n0-fg)"><tspan >Six bugs found by driving it </tspan></text><text xml:space="preserve" x="-1252" y="1243" font-size="14.5" fill="var(--n0-fg)"><tspan >headlessly, not by looking</tspan></text><rect x="-770" y="2138" width="300" height="62" rx="10" fill="var(--n6-bg)" stroke="var(--n6-br)" stroke-width="1.8"/><text xml:space="preserve" x="-752" y="2177" font-size="18.5" fill="var(--n6-fg)" font-weight="700"><tspan >Dropped, kept on purpose</tspan></text><rect x="-1270" y="1426" width="330" height="162" rx="10" fill="var(--n6-bg)" stroke="var(--n6-br)" stroke-width="1.8"/><text xml:space="preserve" x="-1252" y="1460" font-size="14.5" fill="var(--n6-fg)"><tspan text-decoration="line-through" opacity="0.62">Day-claiming</tspan><tspan > - 2 Sept</tspan></text><text xml:space="preserve" x="-1252" y="1502" font-size="14.5" fill="var(--n6-fg)"><tspan >Members claim days and fill their </tspan></text><text xml:space="preserve" x="-1252" y="1523" font-size="14.5" fill="var(--n6-fg)"><tspan >own stretch. Built and working. </tspan></text><text xml:space="preserve" x="-1252" y="1544" font-size="14.5" fill="var(--n6-fg)"><tspan >Splitting the work between four </tspan></text><text xml:space="preserve" x="-1252" y="1565" font-size="14.5" fill="var(--n6-fg)"><tspan >people does not remove it</tspan></text><rect x="-1270" y="1758" width="330" height="141" rx="10" fill="var(--n6-bg)" stroke="var(--n6-br)" stroke-width="1.8"/><text xml:space="preserve" x="-1252" y="1792" font-size="14.5" fill="var(--n6-fg)"><tspan text-decoration="line-through" opacity="0.62">All-in-one platform</tspan><tspan > - 6 Sept</tspan></text><text xml:space="preserve" x="-1252" y="1834" font-size="14.5" fill="var(--n6-fg)"><tspan >The most common thing a team says, </tspan></text><text xml:space="preserve" x="-1252" y="1855" font-size="14.5" fill="var(--n6-fg)"><tspan >the incumbents own it, and </tspan></text><text xml:space="preserve" x="-1252" y="1876" font-size="14.5" fill="var(--n6-fg)"><tspan >Feasibility punishes every thin page</tspan></text><rect x="-1270" y="2116" width="330" height="141" rx="10" fill="var(--n6-bg)" stroke="var(--n6-br)" stroke-width="1.8"/><text xml:space="preserve" x="-1252" y="2150" font-size="14.5" fill="var(--n6-fg)"><tspan text-decoration="line-through" opacity="0.62">Voting is our differentiator</tspan><tspan > - 6 Sept</tspan></text><text xml:space="preserve" x="-1252" y="2192" font-size="14.5" fill="var(--n6-fg)"><tspan >Four products ship </tspan></text><text xml:space="preserve" x="-1252" y="2213" font-size="14.5" fill="var(--n6-fg)"><tspan >vote-then-generate. Saying it </tspan></text><text xml:space="preserve" x="-1252" y="2234" font-size="14.5" fill="var(--n6-fg)"><tspan >invites a judge to name one</tspan></text><rect x="-1270" y="2448" width="330" height="141" rx="10" fill="var(--n6-bg)" stroke="var(--n6-br)" stroke-width="1.8"/><text xml:space="preserve" x="-1252" y="2482" font-size="14.5" fill="var(--n6-fg)"><tspan text-decoration="line-through" opacity="0.62">Photo spots as a feature</tspan><tspan > - 6 Sept</tspan></text><text xml:space="preserve" x="-1252" y="2524" font-size="14.5" fill="var(--n6-fg)"><tspan >Xiaohongshu, not PhotoHound, is what </tspan></text><text xml:space="preserve" x="-1252" y="2545" font-size="14.5" fill="var(--n6-fg)"><tspan >beats it: 300m users planning around </tspan></text><text xml:space="preserve" x="-1252" y="2566" font-size="14.5" fill="var(--n6-fg)"><tspan >check-in spots</tspan></text><rect x="-1270" y="2780" width="330" height="120" rx="10" fill="var(--n4-bg)" stroke="var(--n4-br)" stroke-width="1.8"/><text xml:space="preserve" x="-1252" y="2814" font-size="14.5" fill="var(--n4-fg)"><tspan font-weight="700">Kept from day-claiming.</tspan><tspan > Must-go </tspan></text><text xml:space="preserve" x="-1252" y="2835" font-size="14.5" fill="var(--n4-fg)"><tspan >places, and the principle "we plan </tspan></text><text xml:space="preserve" x="-1252" y="2856" font-size="14.5" fill="var(--n4-fg)"><tspan >it, you veto it" - which now shapes </tspan></text><text xml:space="preserve" x="-1252" y="2877" font-size="14.5" fill="var(--n4-fg)"><tspan >the whole product</tspan></text><rect x="-1710" y="2790" width="300" height="110" rx="10" fill="var(--n0-bg)" stroke="var(--n0-br)" stroke-width="1.8"/><text x="-1692" y="2824" font-size="13" fill="var(--n0-br)" font-family="IBM Plex Mono, ui-monospace, Consolas, monospace">&#128196; live note</text><text x="-1692" y="2852" font-size="14.5" font-weight="600" fill="var(--n0-fg)" font-family="IBM Plex Mono, ui-monospace, Consolas, monospace">dropped.md</text><text x="-1692" y="2876" font-size="12" fill="var(--dg-dim)" font-family="IBM Plex Mono, ui-monospace, Consolas, monospace">docs/decisions/</text><rect x="-770" y="3659" width="300" height="62" rx="10" fill="var(--n3-bg)" stroke="var(--n3-br)" stroke-width="1.8"/><text xml:space="preserve" x="-752" y="3698" font-size="18.5" fill="var(--n3-fg)" font-weight="700"><tspan >Still unclaimed - 30 marks</tspan></text><rect x="-1270" y="3060" width="330" height="99" rx="10" fill="var(--n0-bg)" stroke="var(--n0-br)" stroke-width="1.8"/><text xml:space="preserve" x="-1252" y="3094" font-size="14.5" fill="var(--n0-fg)"><tspan font-weight="700">Diagrams - 8%.</tspan><tspan > This canvas and the </tspan></text><text xml:space="preserve" x="-1252" y="3115" font-size="14.5" fill="var(--n0-fg)"><tspan >user flow beside it are the start of </tspan></text><text xml:space="preserve" x="-1252" y="3136" font-size="14.5" fill="var(--n0-fg)"><tspan >it</tspan></text><rect x="-1270" y="3314" width="330" height="78" rx="10" fill="var(--n1-bg)" stroke="var(--n1-br)" stroke-width="1.8"/><text xml:space="preserve" x="-1252" y="3348" font-size="14.5" fill="var(--n1-fg)"><tspan font-weight="700">Mentors - 7%.</tspan><tspan > sessions/ is empty and </tspan></text><text xml:space="preserve" x="-1252" y="3369" font-size="14.5" fill="var(--n1-fg)"><tspan >the window closes 13 Sept</tspan></text><rect x="-1270" y="3568" width="330" height="120" rx="10" fill="var(--n0-bg)" stroke="var(--n0-br)" stroke-width="1.8"/><text xml:space="preserve" x="-1252" y="3602" font-size="14.5" fill="var(--n0-fg)"><tspan font-weight="700">Breadth - 3%.</tspan><tspan > One idea logged where </tspan></text><text xml:space="preserve" x="-1252" y="3623" font-size="14.5" fill="var(--n0-fg)"><tspan >the band asks for several compared. </tspan></text><text xml:space="preserve" x="-1252" y="3644" font-size="14.5" fill="var(--n0-fg)"><tspan >The playground ideas predate the 30 </tspan></text><text xml:space="preserve" x="-1252" y="3665" font-size="14.5" fill="var(--n0-fg)"><tspan >Aug release and cannot be used</tspan></text><rect x="-1270" y="3874" width="330" height="120" rx="10" fill="var(--n1-bg)" stroke="var(--n1-br)" stroke-width="1.8"/><text xml:space="preserve" x="-1252" y="3908" font-size="14.5" fill="var(--n1-fg)"><tspan font-weight="700">Target group - 5%.</tspan><tspan > "Travellers" is </tspan></text><text xml:space="preserve" x="-1252" y="3929" font-size="14.5" fill="var(--n1-fg)"><tspan >the 2-3 band. Nobody named, nobody </tspan></text><text xml:space="preserve" x="-1252" y="3950" font-size="14.5" fill="var(--n1-fg)"><tspan >interviewed. Everything above is </tspan></text><text xml:space="preserve" x="-1252" y="3971" font-size="14.5" fill="var(--n1-fg)"><tspan >weaker until this is answered</tspan></text><rect x="-1270" y="4180" width="330" height="120" rx="10" fill="var(--n1-bg)" stroke="var(--n1-br)" stroke-width="1.8"/><text xml:space="preserve" x="-1252" y="4214" font-size="14.5" fill="var(--n1-fg)"><tspan font-weight="700">Open Tripeza.</tspan><tspan > If it already keeps </tspan></text><text xml:space="preserve" x="-1252" y="4235" font-size="14.5" fill="var(--n1-fg)"><tspan >losing swipes as a backup pool, the </tspan></text><text xml:space="preserve" x="-1252" y="4256" font-size="14.5" fill="var(--n1-fg)"><tspan >bench claim is gone and the idea </tspan></text><text xml:space="preserve" x="-1252" y="4277" font-size="14.5" fill="var(--n1-fg)"><tspan >needs rethinking, not repositioning</tspan></text><rect x="-190" y="2098" width="380" height="130" rx="10" fill="var(--n1-bg)" stroke="var(--n1-br)" stroke-width="1.8"/><text xml:space="preserve" x="-172" y="2142" font-size="23" fill="var(--n1-fg)" font-weight="700"><tspan >Travel planner</tspan></text><text xml:space="preserve" x="-172" y="2184" font-size="14.5" fill="var(--n1-fg)"><tspan >How the idea moved,</tspan></text><text xml:space="preserve" x="-172" y="2205" font-size="14.5" fill="var(--n1-fg)"><tspan >1 to 6 September 2026</tspan></text><rect x="-230" y="1588" width="460" height="319" rx="10" fill="var(--n4-bg)" stroke="var(--n4-br)" stroke-width="1.8"/><text xml:space="preserve" x="-212" y="1632" font-size="23" fill="var(--n4-fg)" font-weight="700"><tspan >The ideation, drawn</tspan></text><text xml:space="preserve" x="-212" y="1674" font-size="14.5" fill="var(--n4-fg)"><tspan >Six days. Four claims killed, one left standing.</tspan></text><text xml:space="preserve" x="-212" y="1716" font-size="14.5" fill="var(--n4-fg)"><tspan >Every branch here is something that actually </tspan></text><text xml:space="preserve" x="-212" y="1737" font-size="14.5" fill="var(--n4-fg)"><tspan >happened in </tspan><tspan font-family="IBM Plex Mono, ui-monospace, Consolas, monospace" font-size="13.3">docs/decisions/iteration-log.md</tspan><tspan > - </tspan></text><text xml:space="preserve" x="-212" y="1758" font-size="14.5" fill="var(--n4-fg)"><tspan >nothing is invented to fill the picture. The four </tspan></text><text xml:space="preserve" x="-212" y="1779" font-size="14.5" fill="var(--n4-fg)"><tspan >struck-through branches are worth marks twice over: </tspan></text><text xml:space="preserve" x="-212" y="1800" font-size="14.5" fill="var(--n4-fg)"><tspan >as the ideation process, and as the dropped </tspan></text><text xml:space="preserve" x="-212" y="1821" font-size="14.5" fill="var(--n4-fg)"><tspan >directions.</tspan></text><text xml:space="preserve" x="-212" y="1863" font-size="14.5" fill="var(--n4-fg)"><tspan >Pair this with </tspan><tspan font-family="IBM Plex Mono, ui-monospace, Consolas, monospace" font-size="13.3">user-flow.canvas</tspan><tspan >, which draws what a </tspan></text><text xml:space="preserve" x="-212" y="1884" font-size="14.5" fill="var(--n4-fg)"><tspan >group does start to finish.</tspan></text><rect x="-230" y="2288" width="460" height="314" rx="10" fill="var(--n6-bg)" stroke="var(--n6-br)" stroke-width="1.8"/><text xml:space="preserve" x="-212" y="2327" font-size="18.5" fill="var(--n6-fg)" font-weight="700"><tspan >How to read this</tspan></text><text xml:space="preserve" x="-212" y="2369" font-size="14.5" fill="var(--n6-fg)"><tspan font-weight="700">Red</tspan><tspan > is a question still open. </tspan><tspan font-weight="700">Cyan</tspan><tspan > is a live branch. </tspan></text><text xml:space="preserve" x="-212" y="2390" font-size="14.5" fill="var(--n6-fg)"><tspan font-weight="700">Green</tspan><tspan > is what survived pressure and is the claim </tspan></text><text xml:space="preserve" x="-212" y="2411" font-size="14.5" fill="var(--n6-fg)"><tspan >today. </tspan><tspan font-weight="700">Yellow</tspan><tspan > is a cost or a caveat. </tspan><tspan font-weight="700">Purple, struck </tspan></text><text xml:space="preserve" x="-212" y="2432" font-size="14.5" fill="var(--n6-fg)"><tspan font-weight="700">through</tspan><tspan >, is a branch we dropped - kept on purpose, </tspan></text><text xml:space="preserve" x="-212" y="2453" font-size="14.5" fill="var(--n6-fg)"><tspan >because dead ends are scored twice here.</tspan></text><text xml:space="preserve" x="-212" y="2495" font-size="14.5" fill="var(--n6-fg)"><tspan >The </tspan><tspan font-weight="700">edge labels</tspan><tspan > are the argument. An arrow with no </tspan></text><text xml:space="preserve" x="-212" y="2516" font-size="14.5" fill="var(--n6-fg)"><tspan >label says only "these are related", which the </tspan></text><text xml:space="preserve" x="-212" y="2537" font-size="14.5" fill="var(--n6-fg)"><tspan >reader already assumed.</tspan></text><text xml:space="preserve" x="-212" y="2579" font-size="14.5" fill="var(--n6-fg)"><tspan >Drag anything. Delete nothing.</tspan></text></svg>